<svg width="18" height="12" viewBox="0 0 18 12" fill="none" xmlns="http://www.w3.org/2000/svg">
<path fill-rule="evenodd" clip-rule="evenodd" d="M9 0.5C5.13636 0.5 1.83682 2.78067 0.5 6C1.83682 9.21933 5.13636 11.5 9 11.5C12.8636 11.5 16.1632 9.21933 17.5 6C16.1632 2.78067 12.8636 0.5 9 0.5ZM9.00011 9.66662C6.86738 9.66662 5.13647 8.02395 5.13647 5.99996C5.13647 3.97596 6.86738 2.33329 9.00011 2.33329C11.1328 2.33329 12.8637 3.97596 12.8637 5.99996C12.8637 8.02395 11.1328 9.66662 9.00011 9.66662ZM6.68188 6C6.68188 4.78267 7.71734 3.8 9.00007 3.8C10.2828 3.8 11.3182 4.78267 11.3182 6C11.3182 7.21733 10.2828 8.2 9.00007 8.2C7.71734 8.2 6.68188 7.21733 6.68188 6Z" fill="black" fill-opacity="0.54"/>
</svg>
