<svg width="18" height="14" viewBox="0 0 18 14" fill="none" xmlns="http://www.w3.org/2000/svg">
<path fill-rule="evenodd" clip-rule="evenodd" d="M1.82136 1.75423C1.52 1.46692 1.52 1.0028 1.82136 0.715484C2.12273 0.428172 2.61727 0.428172 2.91864 0.715484L15.5218 12.7458C15.8232 13.0331 15.8232 13.4972 15.5218 13.7845C15.2205 14.0718 14.7336 14.0718 14.4323 13.7845L12.3305 11.7807C11.295 12.1638 10.1745 12.3848 9 12.3848C5.13636 12.3848 1.83682 10.0937 0.5 6.85955C1.095 5.40825 2.09182 4.15587 3.34364 3.20552L1.82136 1.75423ZM12.8636 6.85974C12.8636 4.82645 11.1327 3.17624 8.99998 3.17624C8.60589 3.17624 8.22726 3.24991 7.86407 3.35305L6.18726 1.75441C7.07589 1.48184 8.01862 1.3345 8.99998 1.3345C12.8636 1.3345 16.1632 3.62563 17.5 6.85237C16.9668 8.14896 16.1168 9.28347 15.0427 10.1896L12.6782 7.93532C12.7863 7.59644 12.8636 7.23545 12.8636 6.85974ZM9.00011 10.5428C6.86738 10.5428 5.13647 8.89255 5.13647 6.85926C5.13647 6.29201 5.27557 5.75422 5.51511 5.28273L6.72829 6.43935C6.70511 6.57195 6.68193 6.71192 6.68193 6.85926C6.68193 8.08218 7.71738 9.06936 9.00011 9.06936C9.15466 9.06936 9.29375 9.04726 9.44057 9.01779L10.6537 10.1744C10.1515 10.4102 9.59511 10.5428 9.00011 10.5428ZM11.2951 6.61635C11.1792 5.58497 10.3292 4.78197 9.25513 4.67147L11.2951 6.61635Z" fill="black" fill-opacity="0.54"/>
</svg>
