<svg width="24" height="18" viewBox="0 0 24 18" fill="none" xmlns="http://www.w3.org/2000/svg">
<path fill-rule="evenodd" clip-rule="evenodd" d="M15 0C10.04 0 6 4.04 6 9C6 13.96 10.04 18 15 18C19.96 18 24 13.96 24 9C24 4.04 19.96 0 15 0ZM5.48 2.96C3.4 4.17 2 6.42 2 9C2 11.58 3.4 13.83 5.48 15.04C5.8 15.23 6.01 15.55 6.01 15.92C6.01 16.69 5.17 17.17 4.5 16.78C1.82 15.22 0 12.32 0 9C0 5.68 1.82 2.78 4.5 1.22C5.17 0.83 6.01 1.31 6.01 2.08C6.01 2.45 5.8 2.77 5.48 2.96ZM14 6C14 5.45 14.45 5 15 5C15.55 5 16 5.45 16 6V8H18C18.55 8 19 8.45 19 9C19 9.55 18.55 10 18 10H16V12C16 12.55 15.55 13 15 13C14.45 13 14 12.55 14 12V10H12C11.45 10 11 9.55 11 9C11 8.45 11.45 8 12 8H14V6ZM8 9C8 12.86 11.14 16 15 16C18.86 16 22 12.86 22 9C22 5.14 18.86 2 15 2C11.14 2 8 5.14 8 9Z" fill="black" fill-opacity="0.54"/>
</svg>
